<?xml version="1.0" encoding="iso-8859-1"?>
<!-- Generator: Adobe Illustrator 19.0.0, SVG Export Plug-In . SVG Version: 6.00 Build 0)  -->
<svg version="1.1" id="Capa_1" xmlns="http://www.w3.org/2000/svg" xmlns:xlink="http://www.w3.org/1999/xlink" x="0px" y="0px"
	 viewBox="0 0 512 512" style="enable-background:new 0 0 512 512;" xml:space="preserve">
<g>
	<g>
		<path d="M497,116H15c-8.284,0-15,6.716-15,15v250c0,8.284,6.716,15,15,15h482c8.284,0,15-6.716,15-15V131
			C512,122.716,505.284,116,497,116z M482,366H30V146h452V366z"/>
	</g>
</g>
<g>
	<g>
		<path d="M330.333,306H181.667c-8.284,0-15,6.716-15,15s6.716,15,15,15h148.666c8.284,0,15-6.716,15-15S338.617,306,330.333,306z"
			/>
	</g>
</g>
<g>
	<g>
		<path d="M117,306H75c-8.284,0-15,6.716-15,15s6.716,15,15,15h42c8.284,0,15-6.716,15-15S125.284,306,117,306z"/>
	</g>
</g>
<g>
	<g>
		<path d="M437,306h-42c-8.284,0-15,6.716-15,15s6.716,15,15,15h42c8.284,0,15-6.716,15-15S445.284,306,437,306z"/>
	</g>
</g>
<g>
	<g>
		<path d="M117,241H75c-8.284,0-15,6.716-15,15s6.716,15,15,15h42c8.284,0,15-6.716,15-15S125.284,241,117,241z"/>
	</g>
</g>
<g>
	<g>
		<path d="M437,241h-42c-8.284,0-15,6.716-15,15s6.716,15,15,15h42c8.284,0,15-6.716,15-15S445.284,241,437,241z"/>
	</g>
</g>
<g>
	<g>
		<path d="M117,176H75c-8.284,0-15,6.716-15,15s6.716,15,15,15h42c8.284,0,15-6.716,15-15S125.284,176,117,176z"/>
	</g>
</g>
<g>
	<g>
		<path d="M223.667,176h-42c-8.284,0-15,6.716-15,15s6.716,15,15,15h42c8.284,0,15-6.716,15-15S231.951,176,223.667,176z"/>
	</g>
</g>
<g>
	<g>
		<path d="M330.333,176h-42c-8.284,0-15,6.716-15,15s6.716,15,15,15h42c8.284,0,15-6.716,15-15S338.617,176,330.333,176z"/>
	</g>
</g>
<g>
	<g>
		<path d="M223.667,241h-42c-8.284,0-15,6.716-15,15s6.716,15,15,15h42c8.284,0,15-6.716,15-15S231.951,241,223.667,241z"/>
	</g>
</g>
<g>
	<g>
		<path d="M330.333,241h-42c-8.284,0-15,6.716-15,15s6.716,15,15,15h42c8.284,0,15-6.716,15-15S338.617,241,330.333,241z"/>
	</g>
</g>
<g>
	<g>
		<path d="M437,176h-42c-8.284,0-15,6.716-15,15s6.716,15,15,15h42c8.284,0,15-6.716,15-15S445.284,176,437,176z"/>
	</g>
</g>
<g>
</g>
<g>
</g>
<g>
</g>
<g>
</g>
<g>
</g>
<g>
</g>
<g>
</g>
<g>
</g>
<g>
</g>
<g>
</g>
<g>
</g>
<g>
</g>
<g>
</g>
<g>
</g>
<g>
</g>
</svg>
